<?xml version="1.0" standalone="no"?>
<!DOCTYPE svg PUBLIC "-//W3C//DTD SVG 20010904//EN"
 "http://www.w3.org/TR/2001/REC-SVG-20010904/DTD/svg10.dtd">
<svg version="1.0" xmlns="http://www.w3.org/2000/svg"
 width="1024.000000pt" height="1024.000000pt" viewBox="0 0 1024.000000 1024.000000"
 preserveAspectRatio="xMidYMid meet">

<g transform="translate(0.000000,1024.000000) scale(0.100000,-0.100000)"
fill="#000000" stroke="none">
<path d="M4525 6358 c-2 -7 -156 -461 -340 -1008 -219 -649 -347 -1014 -368
-1048 -41 -69 -95 -118 -146 -133 -41 -12 -41 -13 -41 -61 l0 -48 308 0 309 0
2 55 2 55 -43 1 c-71 1 -129 21 -152 52 -29 40 -26 145 7 252 13 44 44 146 68
228 l44 147 359 -2 358 -3 60 -165 c140 -389 143 -472 17 -499 -27 -6 -66 -11
-84 -11 l-35 0 0 -55 0 -55 855 0 855 0 0 49 c0 54 1 54 -79 66 -55 9 -95 46
-110 101 -15 53 -15 1833 -1 1886 16 55 59 86 130 94 l60 7 0 48 0 49 -410 0
-410 0 0 -49 0 -48 62 -7 c34 -4 75 -14 91 -22 59 -31 57 3 57 -1016 0 -869
-1 -935 -18 -967 -29 -59 -61 -74 -159 -79 -77 -3 -94 0 -133 20 -25 13 -57
41 -72 63 -16 22 -66 148 -112 280 -46 132 -157 445 -246 695 -88 250 -216
609 -282 798 l-121 342 -139 0 c-102 0 -140 -3 -143 -12z m83 -698 c40 -113
105 -302 146 -420 41 -118 78 -223 81 -232 7 -17 -12 -18 -305 -18 -293 0
-312 1 -305 18 7 15 280 832 292 872 4 13 5 13 12 0 5 -8 40 -107 79 -220z"/>
<path d="M1510 6311 l0 -49 57 -7 c32 -4 74 -14 95 -22 72 -29 68 28 68 -1015
0 -868 -1 -935 -18 -967 -26 -53 -60 -72 -136 -78 l-66 -6 0 -53 0 -54 513 0
c540 0 637 6 802 49 313 81 531 246 674 512 87 162 120 301 128 539 6 210 -9
328 -63 490 -114 342 -356 564 -719 660 -161 42 -296 50 -832 50 l-503 0 0
-49z m1091 -104 c280 -91 465 -357 523 -750 18 -120 21 -405 6 -524 -54 -413
-237 -669 -522 -727 -78 -16 -287 -22 -360 -10 l-38 7 0 1015 0 1015 173 -6
c112 -3 188 -10 218 -20z"/>
<path d="M6930 6311 l0 -48 65 -6 c141 -13 160 -61 76 -188 -55 -83 -76 -109
-387 -480 -121 -145 -235 -283 -253 -306 l-33 -42 39 -63 c38 -60 317 -489
598 -920 l128 -198 299 0 298 0 0 50 c0 40 -4 52 -17 56 -10 3 -42 16 -70 31
-101 49 -170 138 -541 696 -191 287 -350 527 -354 533 -5 7 67 97 180 225 103
118 236 271 295 341 163 192 239 252 337 265 l40 6 0 48 0 49 -350 0 -350 0 0
-49z"/>
<path d="M7810 6312 l0 -48 70 -11 c38 -6 81 -18 96 -28 56 -37 55 -4 52
-1018 -3 -919 -3 -932 -24 -967 -24 -43 -55 -58 -131 -68 l-58 -7 -3 -52 -3
-53 431 0 431 0 -3 53 -3 52 -50 6 c-67 8 -111 32 -132 72 -17 30 -18 95 -21
962 -2 838 -1 934 14 973 19 51 51 70 134 79 l60 6 0 48 0 49 -430 0 -430 0 0
-48z"/>
</g>
</svg>
