<svg version="1.1" id="Layer_1" xmlns="http://www.w3.org/2000/svg" xmlns:xlink="http://www.w3.org/1999/xlink" x="0px" y="0px"
	 width="100%" viewBox="0 0 1024 1024" enable-background="new 0 0 1024 1024" xml:space="preserve">
<path fill="#000000" opacity="1.000000" stroke="none" 
	d="
M328.239471,581.232788 
	C311.573639,597.911011 291.210754,606.296814 268.789307,610.334167 
	C256.323425,612.578857 243.706284,613.323181 231.044418,613.320923 
	C204.713165,613.316162 178.381897,613.331787 152.050644,613.324829 
	C146.411423,613.323364 143.603729,608.525757 146.101135,603.321350 
	C147.054337,601.334900 148.835953,601.647034 150.417480,601.669678 
	C154.783295,601.731934 158.992203,600.841003 163.212875,599.908020 
	C166.405411,599.202209 168.189545,597.145264 168.515518,594.057800 
	C168.968231,589.769775 169.721619,585.534973 169.714447,581.164429 
	C169.621841,524.669067 169.670792,468.173462 169.607910,411.678009 
	C169.603668,407.870880 169.057892,404.056793 168.639084,400.259735 
	C168.203110,396.306976 165.077942,394.719788 161.938721,393.611298 
	C158.191895,392.288300 154.314484,391.144318 150.239319,391.363892 
	C145.140045,391.638580 145.980927,388.009613 145.828140,384.889008 
	C145.666931,381.596130 146.304840,379.577423 150.374680,379.591949 
	C185.371399,379.716919 220.420502,378.522430 255.349472,380.074005 
	C283.674469,381.332306 310.096649,390.208435 330.268158,411.812042 
	C345.487518,428.111969 353.911011,447.954926 357.366089,469.763824 
	C362.896790,504.674408 357.088867,537.610413 338.638824,568.023254 
	C335.785156,572.727173 332.437653,577.102600 328.239471,581.232788 
M299.092712,547.632751 
	C302.513184,534.746399 304.296204,521.650146 305.049896,508.322937 
	C306.287628,486.436523 305.456940,464.729828 299.534454,443.561279 
	C294.618286,425.989349 286.199219,410.662323 269.486176,401.099823 
	C257.354279,394.158417 244.252090,393.324585 230.856277,393.392609 
	C223.516556,393.429871 222.366119,394.541626 222.332382,401.695343 
	C222.236542,422.021484 222.182098,442.347839 222.093246,462.674042 
	C221.905350,505.658936 221.762177,548.643127 222.268051,591.627930 
	C222.321716,596.187927 224.025284,598.042908 228.436218,597.888306 
	C232.930801,597.730896 237.444870,597.925354 241.925522,597.610901 
	C260.470276,596.309448 276.089111,589.417603 286.772858,573.491760 
	C291.990692,565.713684 296.355774,557.499634 299.092712,547.632751 
z"/>
<path fill="#000000" opacity="1.000000" stroke="none" 
	d="
M710.586853,607.422913 
	C688.556580,574.293457 666.711548,541.483704 644.743958,508.489868 
	C642.757751,510.473541 643.270264,512.383362 643.268982,514.105896 
	C643.251587,537.768982 643.537292,561.435852 643.186768,585.093445 
	C643.038025,595.131714 649.046143,601.195801 658.976685,601.642334 
	C660.273071,601.700562 661.563965,601.879761 662.572571,601.975769 
	C662.931824,602.395996 663.125427,602.515686 663.134277,602.647766 
	C664.013306,615.784973 664.983948,613.226379 653.896484,613.285095 
	C629.067444,613.416565 604.237183,613.349609 579.407593,613.301025 
	C577.539368,613.297363 574.972473,614.154968 574.123535,611.715393 
	C573.134460,608.873230 573.363892,605.778931 574.140381,602.855469 
	C574.421814,601.795654 575.712036,601.821838 576.706604,601.685242 
	C578.675232,601.414795 580.635071,600.868652 582.603455,600.844604 
	C591.331238,600.738037 594.813660,595.739746 595.628601,585.810364 
	C595.723816,584.651428 595.650574,583.478394 595.650574,582.311890 
	C595.650330,526.153381 595.647644,469.994904 595.653748,413.836426 
	C595.654114,410.836334 595.462524,407.886383 594.916809,404.905853 
	C593.222534,395.652985 588.866882,391.414459 579.364075,391.507111 
	C573.951233,391.559875 573.672546,388.930267 573.564880,384.727814 
	C573.450256,380.255188 575.467651,379.563049 579.281982,379.579529 
	C605.610962,379.693329 631.940735,379.635376 658.270203,379.651550 
	C659.740112,379.652466 661.209900,379.821228 662.876282,379.923950 
	C663.837036,383.550598 663.381592,386.987122 663.187317,390.584015 
	C660.247009,392.172394 656.967651,391.311005 653.926575,392.019012 
	C645.476135,393.986420 643.710083,395.591522 643.384705,404.253265 
	C643.140747,410.743896 643.270569,417.249237 643.266785,423.748047 
	C643.256714,441.078766 643.248352,458.409515 643.289185,475.740143 
	C643.293335,477.504333 642.768433,479.402252 644.025330,481.018433 
	C645.926270,481.541351 646.773438,480.070618 647.766357,479.066467 
	C666.880615,459.734589 684.239380,438.878571 700.961548,417.483582 
	C704.133179,413.425751 706.870667,409.015350 708.595520,404.073761 
	C710.664978,398.145081 709.762207,395.644836 704.331116,392.500610 
	C697.786987,388.712036 697.660217,388.411682 699.246643,380.033356 
	C700.108154,379.915741 701.064087,379.672577 702.020203,379.671326 
	C721.184021,379.646118 740.348389,379.718781 759.511292,379.585754 
	C763.261047,379.559692 764.100891,381.409271 763.948181,384.514893 
	C763.809875,387.326172 764.993103,391.029816 759.926819,390.554993 
	C747.926392,389.430298 740.668213,396.862762 733.544922,404.871338 
	C715.829834,424.788177 698.014832,444.617310 680.084778,464.340576 
	C677.588318,467.086700 678.080933,468.971619 679.849854,471.688080 
	C698.756165,500.721558 717.569336,529.815674 736.392456,558.903381 
	C741.550293,566.873901 746.396851,575.060364 751.851807,582.820435 
	C758.412048,592.152832 765.534790,600.868774 777.966431,602.945496 
	C781.887756,603.600586 779.960449,607.610901 780.201294,610.177124 
	C780.423035,612.539124 778.857910,613.306030 776.693970,613.304382 
	C756.863708,613.289246 737.033508,613.288940 717.203247,613.306091 
	C713.412170,613.309387 712.596436,609.964294 710.586853,607.422913 
z"/>
<path fill="#000000" opacity="1.000000" stroke="none" 
	d="
M462.998291,536.118774 
	C445.340393,536.121094 428.180481,536.247192 411.024719,536.034424 
	C406.971802,535.984192 405.147186,537.349854 403.935822,541.178345 
	C399.773315,554.334045 394.969238,567.291504 391.905060,580.778076 
	C391.282166,583.519714 390.735687,586.308777 390.512512,589.104553 
	C390.105988,594.197449 393.842560,599.265991 398.825867,600.643616 
	C400.579773,601.128540 402.395325,601.385925 404.169250,601.804260 
	C405.760895,602.179688 407.334076,602.633423 408.747131,603.008057 
	C408.978760,603.590942 409.180878,603.886780 409.207611,604.197754 
	C409.991699,613.320374 409.988892,613.322754 400.820038,613.322571 
	C385.660675,613.322266 370.501221,613.345215 355.342041,613.289001 
	C353.012909,613.280396 349.767670,614.131836 349.879852,610.151062 
	C349.971924,606.883972 347.875305,602.542969 353.774506,601.579895 
	C357.880737,600.909546 360.836060,598.234985 363.264526,594.810547 
	C372.253906,582.134644 377.280792,567.617004 382.508118,553.245056 
	C399.734955,505.881805 416.735107,458.436096 433.815369,411.019562 
	C437.310272,401.317474 440.883148,391.641205 444.192688,381.875946 
	C445.284485,378.654449 447.024567,377.455811 450.393311,377.566406 
	C456.883179,377.779419 463.399231,377.889221 469.876709,377.535095 
	C473.981232,377.310669 475.808899,379.010162 477.100952,382.639832 
	C484.740601,404.101501 492.541840,425.505676 500.280609,446.932098 
	C515.929810,490.260040 531.551636,533.597900 547.244873,576.909912 
	C549.511230,583.164856 551.920837,589.376648 555.813110,594.890991 
	C558.223938,598.306458 561.237427,600.875793 565.377136,601.563354 
	C571.231995,602.535889 569.070679,606.961731 569.227051,610.215515 
	C569.423035,614.293335 566.087097,613.302429 563.811646,613.306702 
	C536.658142,613.357422 509.504028,613.254944 482.351440,613.419983 
	C477.999969,613.446411 476.563843,612.144653 476.558197,607.742554 
	C476.552399,603.244934 477.886017,601.417114 482.537323,601.553223 
	C486.148895,601.658936 489.826782,601.062317 493.404541,600.397400 
	C498.910492,599.374023 501.359406,595.270142 500.257874,589.665649 
	C497.995331,578.154419 492.718170,567.682007 488.947632,556.691223 
	C487.221252,551.658936 485.136108,546.747864 483.472748,541.696472 
	C482.157867,537.703308 479.999298,535.629089 475.484161,536.046021 
	C471.520294,536.412170 467.495605,536.119995 462.998291,536.118774 
M418.700439,497.052826 
	C416.240967,504.899475 412.800476,512.448303 411.028198,520.442871 
	C411.929993,520.951721 412.354645,521.400085 412.781372,521.402039 
	C432.073273,521.490601 451.365417,521.557678 470.657532,521.573181 
	C473.264832,521.575317 474.144043,519.826477 473.805145,517.525757 
	C473.565613,515.899658 473.039948,514.290771 472.457062,512.743896 
	C462.853119,487.255371 453.220551,461.777618 443.589844,436.299225 
	C443.181610,435.219116 442.813629,434.067230 440.528717,434.105499 
	C433.410248,454.683685 426.208252,475.503296 418.700439,497.052826 
z"/>
<path fill="#000000" opacity="1.000000" stroke="none" 
	d="
M858.253784,402.049500 
	C857.473450,405.581116 857.325378,408.718536 857.326904,411.896637 
	C857.354431,469.527374 857.344788,527.158081 857.350098,584.788818 
	C857.351318,597.574341 859.663452,600.648865 872.284607,601.407410 
	C878.764771,601.796875 877.056091,605.699829 877.353027,609.217834 
	C877.731140,613.696716 874.706543,613.329407 871.799072,613.328247 
	C844.316223,613.317200 816.833130,613.281128 789.350647,613.384766 
	C785.553589,613.399048 783.346008,612.679016 783.595642,608.204224 
	C783.798950,604.559570 783.208130,601.031006 788.792236,601.535400 
	C791.206848,601.753601 793.717468,600.972290 796.178345,600.603882 
	C802.300110,599.687256 804.382996,597.248779 804.687622,590.986511 
	C805.950684,565.026123 805.619751,539.047302 805.629883,513.072632 
	C805.640625,485.423187 805.693481,457.773376 805.563477,430.124512 
	C805.520447,420.974213 805.055298,411.822083 804.616272,402.678802 
	C804.312378,396.348633 800.289001,392.216400 793.976074,391.459595 
	C792.495483,391.282104 790.959534,391.205078 789.487000,391.387787 
	C784.751831,391.975433 783.666138,389.732971 783.537231,385.331360 
	C783.394714,380.466919 785.372192,379.547607 789.686218,379.570221 
	C816.835266,379.712494 843.985413,379.615021 871.135010,379.684723 
	C873.132446,379.689850 875.983337,378.614044 876.904175,381.196350 
	C877.899048,383.986115 877.699646,387.138367 876.889282,390.056610 
	C876.525513,391.366852 875.044556,391.258972 873.887756,391.324890 
	C871.404541,391.466492 868.948059,391.479858 866.465027,392.057892 
	C859.411072,393.699951 858.737061,394.341675 858.253784,402.049500 
z"/>
</svg>